<?xml version="1.0" standalone="no"?>
<!DOCTYPE svg PUBLIC "-//W3C//DTD SVG 20010904//EN"
 "http://www.w3.org/TR/2001/REC-SVG-20010904/DTD/svg10.dtd">
<svg version="1.0" xmlns="http://www.w3.org/2000/svg"
 width="1024.000000pt" height="1006.000000pt" viewBox="0 0 1024.000000 1006.000000"
 preserveAspectRatio="xMidYMid meet">

<g transform="translate(0.000000,1006.000000) scale(0.100000,-0.100000)"
fill="#000000" stroke="none">
<path d="M4585 8404 c-185 -33 -323 -94 -422 -188 -104 -98 -167 -231 -194
-411 -5 -33 -14 -269 -19 -525 -6 -256 -14 -485 -19 -509 -11 -56 -37 -90 -92
-121 -43 -24 -51 -24 -409 -37 -201 -7 -378 -15 -395 -18 -89 -19 -159 -49
-195 -85 -49 -49 -55 -82 -25 -147 27 -60 57 -82 155 -115 61 -20 87 -22 465
-25 220 -2 403 -7 407 -11 4 -4 1 -32 -7 -62 -22 -81 -30 -216 -16 -279 6 -30
27 -88 47 -130 l35 -75 -27 -59 c-66 -148 -114 -367 -114 -522 0 -154 36 -340
85 -438 41 -81 48 -82 42 -3 -4 38 -4 67 -2 64 3 -3 14 -43 26 -89 75 -306
184 -585 306 -783 61 -99 98 -151 124 -178 10 -10 30 -33 44 -53 40 -51 125
-112 135 -95 6 9 32 -9 96 -64 147 -129 346 -248 460 -275 65 -16 115 -4 225
50 113 56 226 131 333 223 60 51 92 73 97 65 10 -17 83 38 145 109 190 216
343 539 455 961 36 135 38 142 36 86 -1 -33 2 -62 7 -65 14 -7 54 99 83 225
23 94 27 133 27 265 0 196 -25 316 -108 518 l-26 62 31 63 c18 34 38 85 45
112 19 70 16 206 -5 290 -11 39 -17 73 -14 78 2 4 172 7 376 7 339 0 379 2
457 20 102 25 161 57 189 105 46 79 13 164 -83 209 -91 43 -210 57 -541 63
-316 5 -376 12 -428 53 -28 22 -50 64 -62 114 -3 16 -10 239 -16 495 -9 483
-15 558 -48 665 -82 264 -240 390 -576 456 -91 18 -140 20 -555 19 -345 -1
-474 -4 -535 -15z m458 -155 c47 -13 111 -69 140 -123 20 -38 22 -53 19 -191
-4 -234 23 -350 118 -501 66 -105 100 -174 100 -204 0 -21 -9 -15 -70 48 -91
94 -117 98 -62 11 119 -189 120 -387 1 -466 -38 -25 -47 -26 -228 -34 -260
-11 -508 -27 -623 -41 -209 -24 -318 41 -353 210 -8 37 -18 139 -23 227 -23
427 52 817 185 949 42 42 62 50 69 29 31 -99 93 -152 236 -203 151 -54 194
-101 248 -272 20 -63 42 -114 58 -130 69 -74 187 -25 226 94 20 64 20 120 0
211 -24 105 -58 168 -130 241 -72 74 -80 102 -38 135 30 23 69 26 127 10z
m337 -1586 c-14 -2 -42 -9 -64 -14 -61 -16 -31 -30 93 -42 61 -6 111 -14 111
-18 0 -6 -1237 -18 -1249 -12 -1 1 14 5 35 8 67 11 72 16 34 33 l-35 16 60 8
c132 17 337 25 680 25 198 0 349 -2 335 -4z m-22 -199 c84 -8 98 -28 25 -37
-27 -4 -282 -2 -568 3 -720 13 -1615 13 -1712 -1 -43 -6 -96 -19 -118 -29 -34
-16 -40 -16 -43 -4 -8 35 40 57 158 75 62 9 2146 2 2258 -7z m-258 -182 l45
-7 -32 -14 c-18 -7 -33 -17 -33 -21 0 -5 57 -8 128 -7 132 2 222 -8 222 -23 0
-6 -23 -22 -52 -36 -29 -14 -78 -51 -109 -81 -36 -34 -59 -49 -61 -41 -3 8
-15 1 -35 -21 -73 -79 -87 -264 -40 -517 15 -78 27 -151 27 -163 0 -32 -25
-36 -100 -17 -38 10 -77 15 -89 11 -36 -11 -59 11 -66 63 -11 77 -13 81 -41
49 -19 -23 -24 -39 -24 -87 l0 -58 -97 -31 c-118 -36 -218 -61 -255 -61 -20 0
-38 13 -70 50 -43 49 -102 149 -94 157 2 3 16 -3 30 -13 15 -9 29 -15 31 -12
3 3 -17 47 -44 99 -128 245 -196 585 -142 711 25 60 51 69 216 79 150 8 611 2
685 -9z m-1038 -79 c35 -41 48 -129 26 -178 -12 -26 -23 -32 -33 -15 -11 18
-32 11 -43 -15 -19 -42 -14 -63 28 -108 53 -58 65 -92 45 -123 -8 -13 -21 -24
-28 -24 -32 0 -77 84 -107 202 -22 86 -22 86 -2 115 11 15 30 58 43 96 24 71
42 83 71 50z m1703 -303 c-4 -12 -20 -37 -37 -55 -42 -48 -30 -59 53 -51 l69
7 0 -39 c0 -96 -55 -198 -124 -232 -116 -55 -220 8 -311 189 -20 40 -34 76
-30 79 4 4 35 5 71 4 79 -4 141 13 123 34 -14 18 -15 17 45 32 28 7 70 23 95
36 25 13 48 22 49 20 2 -1 1 -12 -3 -24z m-1605 -394 c0 -7 12 -41 26 -77 29
-70 40 -179 18 -179 -7 0 -19 -3 -27 -6 -26 -10 -47 66 -47 175 0 54 3 101 6
104 9 9 24 -2 24 -17z m-132 -258 c9 -9 12 -6 12 18 1 44 14 14 40 -89 22 -89
21 -123 -1 -73 -7 14 -19 26 -26 26 -12 0 -14 -17 -13 -82 3 -107 3 -106 -15
-81 -34 48 -56 147 -62 270 -7 155 2 182 31 91 12 -37 27 -73 34 -80z m819
-76 c-17 -18 -23 -42 -11 -42 3 0 35 12 70 26 76 30 98 29 102 -7 7 -57 -62
-105 -186 -129 -55 -11 -62 -15 -60 -34 3 -21 -1 -21 -177 -27 -166 -6 -231
-15 -299 -44 -17 -7 -18 -5 -12 18 8 34 0 34 -47 1 -21 -14 -41 -23 -44 -21
-3 3 13 25 36 49 53 59 155 108 246 120 98 13 150 25 204 50 25 11 64 29 86
39 22 10 55 19 74 19 32 0 33 -1 18 -18z m323 -269 c3 -3 -6 -13 -19 -24 -41
-33 -176 -21 -188 18 -2 6 6 13 19 16 27 4 181 -4 188 -10z m-264 -88 c37 -37
42 -60 20 -90 -13 -19 -56 -146 -56 -166 0 -27 23 -2 46 49 25 57 63 105 97
123 16 9 166 39 195 39 6 0 12 -8 12 -18 0 -26 -91 -170 -146 -231 -26 -28
-43 -55 -40 -59 16 -15 156 70 210 129 30 32 58 59 61 59 17 0 -31 -177 -76
-284 -16 -38 -27 -71 -24 -74 17 -17 114 120 140 199 25 73 39 74 31 2 -16
-140 -71 -268 -173 -403 -77 -103 -120 -170 -141 -226 -24 -60 -37 -43 -28 37
8 70 -3 76 -38 20 -34 -54 -56 -145 -56 -235 0 -42 -4 -76 -9 -76 -12 0 -58
133 -77 225 -20 99 -14 256 14 363 10 40 16 75 12 77 -10 6 -45 -35 -63 -75
-9 -19 -26 -73 -39 -120 -30 -112 -30 -298 -1 -408 11 -40 17 -74 15 -77 -11
-11 -135 189 -194 315 -103 220 -122 475 -48 654 18 42 41 86 52 99 l20 22 -7
-25 c-4 -14 -13 -47 -21 -75 -21 -74 -30 -160 -16 -151 7 4 12 14 12 23 0 27
66 169 109 231 35 53 149 162 168 162 3 0 21 -16 39 -35z m-463 -11 c3 -3 -14
-36 -37 -72 -49 -77 -76 -134 -102 -212 -21 -65 -28 -49 -22 52 5 87 -14 90
-41 6 -20 -61 -34 -46 -29 30 2 50 9 76 26 100 36 49 86 83 139 92 26 4 51 8
54 9 3 0 8 -2 12 -5z"/>
<path d="M4477 6259 c-54 -13 -87 -32 -131 -78 -39 -40 -39 -41 -21 -61 10
-11 45 -30 77 -42 l59 -21 -35 -36 c-20 -20 -36 -41 -36 -47 0 -31 101 -94
184 -115 48 -12 53 -18 35 -36 -8 -8 -5 -13 12 -19 39 -12 181 -7 225 9 23 8
46 12 51 9 6 -4 14 -25 17 -47 8 -44 22 -73 31 -63 14 14 26 148 23 257 -3
116 -3 118 -33 144 -99 88 -356 170 -458 146z"/>
<path d="M3610 2891 c0 -5 7 -14 15 -21 11 -9 15 -33 15 -85 0 -56 -4 -74 -15
-79 -8 -3 -15 -10 -15 -16 0 -7 27 -10 78 -8 71 3 77 5 80 26 4 24 -7 29 -25
11 -6 -6 -23 -9 -39 -7 -29 3 -29 4 -32 77 -2 60 0 76 13 83 8 5 13 13 10 19
-8 11 -85 12 -85 0z"/>
<path d="M5500 2891 c0 -6 5 -13 10 -16 6 -3 10 -42 10 -86 0 -46 -4 -79 -10
-79 -5 0 -10 -7 -10 -15 0 -13 13 -15 78 -13 71 3 77 5 80 26 4 24 -7 29 -25
11 -6 -6 -23 -9 -39 -7 -29 3 -29 4 -32 77 -2 42 2 79 8 85 19 19 10 26 -30
26 -22 0 -40 -4 -40 -9z"/>
<path d="M5800 2886 c0 -8 5 -18 10 -21 13 -8 42 14 34 26 -9 15 -44 10 -44
-5z"/>
<path d="M3894 2829 c-4 -7 -2 -15 4 -17 7 -2 12 -22 12 -46 0 -23 7 -52 16
-64 16 -23 53 -29 71 -11 8 8 13 8 17 0 11 -17 56 -14 56 4 0 8 -4 15 -10 15
-5 0 -10 28 -12 62 -3 54 -5 61 -25 64 -25 4 -42 -14 -24 -26 8 -4 11 -25 9
-51 -3 -39 -6 -44 -28 -44 -23 0 -25 4 -30 60 -4 52 -8 60 -27 63 -11 2 -25
-2 -29 -9z"/>
<path d="M4200 2832 c0 -2 11 -17 25 -34 14 -16 25 -33 25 -37 0 -5 -11 -20
-25 -35 -33 -35 -32 -46 4 -46 24 0 30 5 33 25 2 14 8 26 13 26 6 0 11 -12 13
-26 3 -20 9 -25 33 -25 36 0 37 11 4 46 -31 33 -31 39 0 70 29 29 25 44 -11
44 -19 0 -24 -5 -24 -26 0 -31 -23 -28 -28 4 -2 16 -10 20 -33 20 -16 -1 -29
-3 -29 -6z"/>
<path d="M4480 2825 c0 -8 5 -15 10 -15 6 0 10 -22 10 -49 0 -70 31 -97 80
-71 13 7 21 7 25 0 10 -16 45 -12 45 5 0 8 -4 15 -10 15 -6 0 -10 27 -10 60 0
63 -11 79 -46 66 -15 -6 -15 -8 0 -25 35 -38 5 -114 -38 -98 -12 5 -16 20 -16
67 0 57 -1 60 -25 60 -16 0 -25 -6 -25 -15z"/>
<path d="M4780 2825 c0 -8 5 -15 10 -15 6 0 10 -22 10 -49 0 -28 -4 -53 -10
-56 -21 -13 -9 -25 24 -25 35 0 55 13 36 25 -14 9 -13 78 2 93 7 7 20 12 30
12 10 0 18 5 18 10 0 17 -29 23 -46 10 -11 -10 -18 -10 -26 -2 -17 17 -48 15
-48 -3z"/>
<path d="M5024 2828 c-4 -6 0 -14 8 -19 9 -5 25 -32 37 -60 18 -42 20 -56 12
-81 -14 -39 -14 -38 3 -38 7 0 30 40 52 90 21 50 42 90 46 90 4 0 8 6 8 14 0
9 -11 12 -32 11 -44 -4 -44 -3 -31 -16 12 -12 -2 -69 -17 -69 -15 0 -29 57
-17 69 6 6 9 11 7 12 -36 7 -71 5 -76 -3z"/>
<path d="M5787 2834 c-4 -4 -3 -12 2 -18 16 -19 17 -96 2 -105 -22 -14 -3 -31
35 -31 24 0 34 5 34 15 0 8 -4 15 -10 15 -5 0 -10 28 -12 63 -3 54 -6 62 -23
65 -12 2 -24 0 -28 -4z"/>
<path d="M5990 2825 c0 -8 5 -15 10 -15 6 0 10 -22 10 -50 0 -27 -4 -50 -10
-50 -5 0 -10 -7 -10 -15 0 -10 10 -15 33 -15 41 0 51 8 35 28 -16 18 -19 40
-12 75 5 22 11 27 27 25 20 -3 22 -10 25 -65 3 -62 3 -63 32 -63 20 0 30 5 30
15 0 8 -4 15 -10 15 -5 0 -10 23 -10 51 0 47 2 50 23 47 19 -3 22 -10 25 -61
3 -60 15 -76 48 -63 14 5 14 9 3 23 -8 9 -15 28 -15 42 -1 14 -2 36 -3 49 -2
32 -43 50 -76 32 -20 -11 -27 -11 -40 0 -12 10 -21 10 -40 2 -15 -7 -26 -8
-30 -2 -10 16 -45 11 -45 -5z"/>
<path d="M6399 2821 c-18 -14 -24 -29 -24 -61 0 -71 63 -103 119 -59 20 16 26
29 26 59 0 67 -70 102 -121 61z m76 -61 c0 -40 -3 -45 -24 -48 -28 -4 -41 12
-41 54 0 38 7 46 40 42 23 -3 25 -7 25 -48z"/>
<path d="M3427 2233 c-13 -12 -7 -71 8 -86 7 -8 30 -18 50 -21 l35 -7 0 -338
0 -339 -45 -11 c-47 -12 -60 -32 -53 -82 3 -24 3 -24 171 -27 l168 -2 -3 46
c-3 49 -11 58 -60 69 l-28 5 0 175 0 174 48 28 c65 39 131 39 169 0 l28 -27 3
-236 3 -235 122 3 c120 3 122 3 125 27 7 47 -6 68 -50 83 l-43 13 -5 185 c-5
166 -7 189 -28 227 -60 113 -203 140 -326 63 l-46 -30 0 175 0 175 -118 0
c-65 0 -122 -3 -125 -7z"/>
<path d="M4343 2228 c-29 -14 -55 -71 -47 -102 3 -13 14 -33 25 -45 74 -79
205 10 155 104 -27 50 -82 68 -133 43z"/>
<path d="M1640 2220 c-157 -30 -264 -109 -330 -244 -36 -74 -50 -174 -38 -283
14 -141 99 -275 209 -331 166 -85 402 -62 509 50 17 17 30 34 30 37 0 4 -18
24 -39 45 l-39 38 -63 -38 c-61 -38 -64 -39 -159 -39 -90 0 -100 2 -146 30
-55 34 -108 105 -125 168 -6 22 -11 78 -10 124 0 192 112 308 296 307 33 0 83
-6 111 -13 l51 -12 9 -57 9 -57 48 -3 47 -3 0 110 c0 127 7 117 -110 149 -90
25 -199 34 -260 22z"/>
<path d="M6400 2220 c-113 -21 -216 -79 -274 -154 -15 -20 -41 -66 -58 -102
-26 -56 -32 -82 -36 -163 -7 -159 25 -262 113 -359 123 -137 356 -173 531 -84
52 27 104 70 104 87 0 7 -18 29 -41 49 -40 37 -41 37 -67 19 -75 -50 -115 -63
-189 -63 -177 0 -283 118 -283 315 0 143 52 240 157 292 65 31 160 37 250 14
52 -13 52 -13 58 -59 10 -71 10 -72 60 -72 l45 0 0 114 0 113 -92 26 c-105 29
-211 40 -278 27z"/>
<path d="M4731 2127 c-5 -13 -12 -46 -16 -73 -14 -106 -11 -102 -68 -111 -47
-7 -52 -11 -55 -35 -5 -46 14 -68 58 -68 l39 0 3 -212 c4 -239 6 -250 71 -291
49 -32 117 -36 190 -11 68 23 75 36 43 85 -21 30 -32 39 -44 33 -41 -17 -70
-16 -91 5 -20 20 -21 31 -21 206 l0 185 85 0 85 0 0 55 0 55 -85 0 -85 0 0
100 0 100 -50 0 c-44 0 -52 -3 -59 -23z"/>
<path d="M3092 1959 c-94 -16 -165 -68 -210 -153 -25 -47 -27 -60 -27 -171 0
-111 2 -124 27 -171 67 -127 202 -181 353 -140 59 15 122 54 131 79 6 20 -31
77 -52 77 -8 0 -33 -12 -55 -27 -32 -21 -54 -27 -93 -27 -98 0 -152 58 -163
178 -15 169 63 262 202 242 44 -7 45 -8 45 -44 0 -53 21 -79 62 -78 l33 1 0
100 0 99 -55 17 c-77 23 -136 28 -198 18z"/>
<path d="M5310 1957 c-165 -36 -248 -156 -238 -346 5 -104 34 -168 102 -228
124 -109 356 -92 451 33 47 62 65 124 65 227 0 78 -4 101 -26 147 -14 30 -35
66 -47 79 -71 76 -196 112 -307 88z m166 -138 c48 -45 59 -77 58 -179 0 -66
-5 -106 -16 -132 -30 -67 -106 -96 -189 -72 -64 19 -99 75 -107 169 -8 111 27
202 92 231 47 22 130 13 162 -17z"/>
<path d="M7070 1957 c-69 -16 -142 -57 -172 -99 -52 -73 -61 -101 -66 -198 -3
-81 -1 -104 18 -154 44 -116 140 -184 270 -194 129 -9 236 45 294 148 27 48
31 66 34 152 5 114 -13 185 -60 243 -73 88 -198 128 -318 102z m166 -138 c39
-37 55 -74 61 -148 10 -116 -24 -209 -86 -233 -35 -13 -107 -12 -142 2 -63 27
-98 138 -79 256 18 113 68 157 168 151 38 -3 59 -10 78 -28z"/>
<path d="M7854 1951 c-22 -10 -56 -37 -75 -60 -39 -45 -49 -44 -49 5 0 56 -19
65 -129 62 l-96 -3 -3 -41 c-4 -49 16 -74 58 -74 l29 0 3 -184 c2 -100 2 -190
0 -199 -2 -8 -22 -21 -45 -29 -41 -13 -42 -14 -45 -60 l-3 -48 171 0 171 0 -3
48 c-3 46 -4 47 -45 60 l-43 14 0 140 c0 124 2 145 20 173 28 46 79 68 148 63
l56 -3 13 60 c6 33 12 63 13 67 0 8 -58 28 -84 28 -12 0 -39 -9 -62 -19z"/>
<path d="M8424 1960 c-35 -8 -95 -42 -114 -65 -20 -25 -37 -17 -44 19 -8 41
-21 46 -139 46 l-88 0 3 -52 3 -53 43 -9 42 -10 0 -303 0 -303 -27 -5 c-50
-11 -58 -20 -61 -69 l-3 -46 170 0 171 0 0 36 c0 46 -16 74 -41 74 -46 0 -59
17 -59 80 0 33 3 60 8 60 4 0 29 -11 56 -25 132 -67 289 3 346 155 33 86 35
227 5 309 -47 126 -153 190 -271 161z m87 -146 c16 -15 34 -44 39 -63 13 -47
13 -166 0 -213 -24 -87 -97 -129 -185 -107 -77 19 -85 38 -85 198 l0 137 33
32 c61 59 146 66 198 16z"/>
<path d="M2057 1954 c-13 -13 -7 -81 8 -94 8 -7 30 -16 48 -19 l32 -7 5 -189
c5 -177 7 -193 29 -232 27 -46 60 -74 110 -91 73 -26 173 -7 233 43 31 27 48
25 48 -4 0 -34 21 -41 127 -41 l103 0 0 39 c0 43 -20 71 -50 71 -51 0 -50 -7
-50 271 l0 259 -121 0 -120 0 3 -52 c3 -55 2 -55 76 -74 9 -3 12 -46 12 -173
l0 -170 -35 -27 c-37 -28 -104 -41 -149 -30 -55 14 -61 39 -66 291 l-5 230
-116 3 c-63 1 -118 -1 -122 -4z"/>
<path d="M4227 1953 c-4 -3 -7 -26 -7 -49 0 -47 17 -64 64 -64 l26 0 0 -199 0
-199 -42 -14 c-42 -13 -43 -14 -46 -60 l-3 -48 171 0 171 0 -3 47 c-3 46 -4
48 -47 63 l-45 15 3 202 c1 111 0 226 -4 257 l-7 56 -112 0 c-62 0 -116 -3
-119 -7z"/>
<path d="M8812 1475 c-49 -35 -44 -123 9 -150 41 -22 73 -18 108 11 25 20 31
34 31 64 0 73 -87 117 -148 75z"/>
</g>
</svg>
